#Comment line ignore any data following # character 
#Hierarchical Translation and Rotation (.htr) file 
[Header]	
#Header keywords are followed by a single value 
FileType HTR		#Single word string
DataType HTRS		#Translation followed by rotation and scale data
FileVersion 1		#integer
NumSegments 84		#integer
NumFrames 2		#integer
DataFrameRate 30		#integer, data frame rate in this file
EulerRotationOrder ZYX
CalibrationUnits mm
RotationUnits Degrees
GlobalAxisofGravity Y
BoneLengthAxis Y
ScaleFactor 1.00
[SegmentNames&Hierarchy]
#CHILD	PARENT
MASTER GLOBAL
root MASTER
chest root
L_mid_tent01 root
R_mid_tent01 root
spine01 root
Bip01_Neck chest
L_humerus chest
R_humerus chest
weapon_bone chest
Bip01_Head Bip01_Neck
eye_left_bone Bip01_Head
eye_right_bone Bip01_Head
L_forearm L_humerus
L_front_hand L_forearm
L_weapon_bone L_forearm
L_front_hand01_01 L_front_hand
L_front_hand02_01 L_front_hand
L_front_hand03_01 L_front_hand
L_front_hand01_02 L_front_hand01_01
L_front_hand02_02 L_front_hand02_01
L_front_hand03_02 L_front_hand03_01
R_forearm R_humerus
R_front_hand R_forearm
R_weapon_bone R_forearm
R_front_hand01_01 R_front_hand
R_front_hand02_01 R_front_hand
R_front_hand03_01 R_front_hand
R_front_hand01_02 R_front_hand01_01
R_front_hand02_02 R_front_hand02_01
R_front_hand03_02 R_front_hand03_01
null_rope01_connect L_mid_tent01
Rope1_Seg01 null_rope01_connect
Rope1_Seg02 Rope1_Seg01
Rope1_Seg03 Rope1_Seg02
Rope1_Seg04 Rope1_Seg03
Rope1_Seg05 Rope1_Seg04
Rope1_Seg06 Rope1_Seg05
Rope1_Seg07 Rope1_Seg06
Rope1_Seg09 Rope1_Seg07
L_mid_hand01 Rope1_Seg09
L_mid_hand02 Rope1_Seg09
L_mid_hand03 Rope1_Seg09
null_rope02_connect R_mid_tent01
Rope2_Seg01 null_rope02_connect
Rope2_Seg02 Rope2_Seg01
Rope2_Seg03 Rope2_Seg02
Rope2_Seg04 Rope2_Seg03
Rope2_Seg05 Rope2_Seg04
Rope2_Seg06 Rope2_Seg05
Rope2_Seg07 Rope2_Seg06
Rope2_Seg09 Rope2_Seg07
R_mid_hand01 Rope2_Seg09
R_mid_hand02 Rope2_Seg09
R_mid_hand03 Rope2_Seg09
spine02 spine01
spine03 spine02
pelvis spine03
null_rope03_connect pelvis
null_rope04_connect pelvis
Rope3_Seg01 null_rope03_connect
Rope3_Seg02 Rope3_Seg01
Rope3_Seg03 Rope3_Seg02
Rope3_Seg04 Rope3_Seg03
Rope3_Seg05 Rope3_Seg04
Rope3_Seg06 Rope3_Seg05
Rope3_Seg07 Rope3_Seg06
Rope3_Seg08 Rope3_Seg07
Rope3_Seg09 Rope3_Seg08
R_rear_hand01 Rope3_Seg09
R_rear_hand02 Rope3_Seg09
R_rear_hand03 Rope3_Seg09
Rope4_Seg01 null_rope04_connect
Rope4_Seg02 Rope4_Seg01
Rope4_Seg03 Rope4_Seg02
Rope4_Seg04 Rope4_Seg03
Rope4_Seg05 Rope4_Seg04
Rope4_Seg06 Rope4_Seg05
Rope4_Seg07 Rope4_Seg06
Rope4_Seg08 Rope4_Seg07
Rope4_Seg09 Rope4_Seg08
L_rear_hand01 Rope4_Seg09
L_rear_hand02 Rope4_Seg09
L_rear_hand03 Rope4_Seg09
[BasePosition]
#SegmentName Tx, Ty, Tz, Rx, Ry, Rz, BoneLength
MASTER 0.000000 0.000000 0.000000 -90.000000 0.000000 0.000000 10.000000 
root 0.000000 0.000000 0.000000 0.000000 0.000000 0.000000 10.000000 
chest 0.000000 0.000000 0.000000 0.000000 0.000000 0.000000 10.000000 
L_mid_tent01 0.000000 0.000000 0.000000 0.000000 0.000000 0.000000 10.000000 
R_mid_tent01 0.000000 0.000000 0.000000 0.000000 0.000000 0.000000 10.000000 
spine01 0.000000 0.000000 0.000000 0.000000 0.000000 0.000000 10.000000 
Bip01_Neck 0.000000 0.000000 0.000000 0.000000 0.000000 0.000000 10.000000 
L_humerus 0.000000 0.000000 0.000000 0.000000 0.000000 0.000000 10.000000 
R_humerus 0.000000 0.000000 0.000000 0.000000 0.000000 0.000000 10.000000 
weapon_bone 0.000000 0.000000 0.000000 0.000000 0.000000 0.000000 10.000000 
Bip01_Head 0.000000 0.000000 0.000000 0.000000 0.000000 0.000000 10.000000 
eye_left_bone 0.000000 0.000000 0.000000 0.000000 0.000000 0.000000 10.000000 
eye_right_bone 0.000000 0.000000 0.000000 0.000000 0.000000 0.000000 10.000000 
L_forearm 0.000000 0.000000 0.000000 0.000000 0.000000 0.000000 10.000000 
L_front_hand 0.000000 0.000000 0.000000 0.000000 0.000000 0.000000 10.000000 
L_weapon_bone 0.000000 0.000000 0.000000 0.000000 0.000000 0.000000 10.000000 
L_front_hand01_01 0.000000 0.000000 0.000000 0.000000 0.000000 0.000000 10.000000 
L_front_hand02_01 0.000000 0.000000 0.000000 0.000000 0.000000 0.000000 10.000000 
L_front_hand03_01 0.000000 0.000000 0.000000 0.000000 0.000000 0.000000 10.000000 
L_front_hand01_02 0.000000 0.000000 0.000000 0.000000 0.000000 0.000000 10.000000 
L_front_hand02_02 0.000000 0.000000 0.000000 0.000000 0.000000 0.000000 10.000000 
L_front_hand03_02 0.000000 0.000000 0.000000 0.000000 0.000000 0.000000 10.000000 
R_forearm 0.000000 0.000000 0.000000 0.000000 0.000000 0.000000 10.000000 
R_front_hand 0.000000 0.000000 0.000000 0.000000 0.000000 0.000000 10.000000 
R_weapon_bone 0.000000 0.000000 0.000000 0.000000 0.000000 0.000000 10.000000 
R_front_hand01_01 0.000000 0.000000 0.000000 0.000000 0.000000 0.000000 10.000000 
R_front_hand02_01 0.000000 0.000000 0.000000 0.000000 0.000000 0.000000 10.000000 
R_front_hand03_01 0.000000 0.000000 0.000000 0.000000 0.000000 0.000000 10.000000 
R_front_hand01_02 0.000000 0.000000 0.000000 0.000000 0.000000 0.000000 10.000000 
R_front_hand02_02 0.000000 0.000000 0.000000 0.000000 0.000000 0.000000 10.000000 
R_front_hand03_02 0.000000 0.000000 0.000000 0.000000 0.000000 0.000000 10.000000 
null_rope01_connect 0.000000 0.000000 0.000000 0.000000 0.000000 0.000000 10.000000 
Rope1_Seg01 0.000000 0.000000 0.000000 0.000000 0.000000 0.000000 10.000000 
Rope1_Seg02 0.000000 0.000000 0.000000 0.000000 0.000000 0.000000 10.000000 
Rope1_Seg03 0.000000 0.000000 0.000000 0.000000 0.000000 0.000000 10.000000 
Rope1_Seg04 0.000000 0.000000 0.000000 0.000000 0.000000 0.000000 10.000000 
Rope1_Seg05 0.000000 0.000000 0.000000 0.000000 0.000000 0.000000 10.000000 
Rope1_Seg06 0.000000 0.000000 0.000000 0.000000 0.000000 0.000000 10.000000 
Rope1_Seg07 0.000000 0.000000 0.000000 0.000000 0.000000 0.000000 10.000000 
Rope1_Seg09 0.000000 0.000000 0.000000 0.000000 0.000000 0.000000 10.000000 
L_mid_hand01 0.000000 0.000000 0.000000 0.000000 0.000000 0.000000 10.000000 
L_mid_hand02 0.000000 0.000000 0.000000 0.000000 0.000000 0.000000 10.000000 
L_mid_hand03 0.000000 0.000000 0.000000 0.000000 0.000000 0.000000 10.000000 
null_rope02_connect 0.000000 0.000000 0.000000 0.000000 0.000000 0.000000 10.000000 
Rope2_Seg01 0.000000 0.000000 0.000000 0.000000 0.000000 0.000000 10.000000 
Rope2_Seg02 0.000000 0.000000 0.000000 0.000000 0.000000 0.000000 10.000000 
Rope2_Seg03 0.000000 0.000000 0.000000 0.000000 0.000000 0.000000 10.000000 
Rope2_Seg04 0.000000 0.000000 0.000000 0.000000 0.000000 0.000000 10.000000 
Rope2_Seg05 0.000000 0.000000 0.000000 0.000000 0.000000 0.000000 10.000000 
Rope2_Seg06 0.000000 0.000000 0.000000 0.000000 0.000000 0.000000 10.000000 
Rope2_Seg07 0.000000 0.000000 0.000000 0.000000 0.000000 0.000000 10.000000 
Rope2_Seg09 0.000000 0.000000 0.000000 0.000000 0.000000 0.000000 10.000000 
R_mid_hand01 0.000000 0.000000 0.000000 0.000000 0.000000 0.000000 10.000000 
R_mid_hand02 0.000000 0.000000 0.000000 0.000000 0.000000 0.000000 10.000000 
R_mid_hand03 0.000000 0.000000 0.000000 0.000000 0.000000 0.000000 10.000000 
spine02 0.000000 0.000000 0.000000 0.000000 0.000000 0.000000 10.000000 
spine03 0.000000 0.000000 0.000000 0.000000 0.000000 0.000000 10.000000 
pelvis 0.000000 0.000000 0.000000 0.000000 0.000000 0.000000 10.000000 
null_rope03_connect 0.000000 0.000000 0.000000 0.000000 0.000000 0.000000 10.000000 
null_rope04_connect 0.000000 0.000000 0.000000 0.000000 0.000000 0.000000 10.000000 
Rope3_Seg01 0.000000 0.000000 0.000000 0.000000 0.000000 0.000000 10.000000 
Rope3_Seg02 0.000000 0.000000 0.000000 0.000000 0.000000 0.000000 10.000000 
Rope3_Seg03 0.000000 0.000000 0.000000 0.000000 0.000000 0.000000 10.000000 
Rope3_Seg04 0.000000 0.000000 0.000000 0.000000 0.000000 0.000000 10.000000 
Rope3_Seg05 0.000000 0.000000 0.000000 0.000000 0.000000 0.000000 10.000000 
Rope3_Seg06 0.000000 0.000000 0.000000 0.000000 0.000000 0.000000 10.000000 
Rope3_Seg07 0.000000 0.000000 0.000000 0.000000 0.000000 0.000000 10.000000 
Rope3_Seg08 0.000000 0.000000 0.000000 0.000000 0.000000 0.000000 10.000000 
Rope3_Seg09 0.000000 0.000000 0.000000 0.000000 0.000000 0.000000 10.000000 
R_rear_hand01 0.000000 0.000000 0.000000 0.000000 0.000000 0.000000 10.000000 
R_rear_hand02 0.000000 0.000000 0.000000 0.000000 0.000000 0.000000 10.000000 
R_rear_hand03 0.000000 0.000000 0.000000 0.000000 0.000000 0.000000 10.000000 
Rope4_Seg01 0.000000 0.000000 0.000000 0.000000 0.000000 0.000000 10.000000 
Rope4_Seg02 0.000000 0.000000 0.000000 0.000000 0.000000 0.000000 10.000000 
Rope4_Seg03 0.000000 0.000000 0.000000 0.000000 0.000000 0.000000 10.000000 
Rope4_Seg04 0.000000 0.000000 0.000000 0.000000 0.000000 0.000000 10.000000 
Rope4_Seg05 0.000000 0.000000 0.000000 0.000000 0.000000 0.000000 10.000000 
Rope4_Seg06 0.000000 0.000000 0.000000 0.000000 0.000000 0.000000 10.000000 
Rope4_Seg07 0.000000 0.000000 0.000000 0.000000 0.000000 0.000000 10.000000 
Rope4_Seg08 0.000000 0.000000 0.000000 0.000000 0.000000 0.000000 10.000000 
Rope4_Seg09 0.000000 0.000000 0.000000 0.000000 0.000000 0.000000 10.000000 
L_rear_hand01 0.000000 0.000000 0.000000 0.000000 0.000000 0.000000 10.000000 
L_rear_hand02 0.000000 0.000000 0.000000 0.000000 0.000000 0.000000 10.000000 
L_rear_hand03 0.000000 0.000000 0.000000 0.000000 0.000000 0.000000 10.000000 
#Beginning of Data. Separated by tabs
#Fr	Tx	Ty	Tz	Rx	Ry	Rz	SF
[MASTER]
19 -1470.045288 3415.770508 -1336.398193 0.001660 0.001660 0.001660 3951.516357
20 -1459.922607 3537.435303 -1398.189087 0.001660 0.001660 0.001660 4074.279785
[root]
19 21.223450 -87.763359 1140.242432 -95.318275 -28.814011 -88.541939 1143.811890
20 8.859711 -57.580257 1236.479248 -94.946274 -25.369122 -88.650253 1237.850952
[chest]
19 -84.512650 -34.090519 0.000000 -8.674211 -3.891407 178.298462 91.129311
20 -84.512650 -34.090519 0.000000 -8.040338 -3.219761 176.911057 91.129311
[L_mid_tent01]
19 27.299135 22.179159 -249.918808 -10.461701 29.722012 51.364304 252.381790
20 27.299147 22.179148 -249.918808 -8.040527 32.276688 56.274208 252.381790
[R_mid_tent01]
19 23.228794 24.509907 226.238495 171.485504 -20.585896 42.591602 228.744751
20 23.228794 24.509907 226.238495 172.550842 -24.370304 48.062042 228.744751
[spine01]
19 -0.361383 -0.195265 0.000000 0.001819 0.001483 11.609252 0.410763
20 -0.361383 -0.195265 0.000000 0.001848 0.001448 13.838823 0.410763
[Bip01_Neck]
19 165.484543 71.581718 0.000119 176.643677 -1.657967 43.431911 180.302734
20 165.484543 71.581718 0.000119 176.643677 -1.657967 43.431911 180.302734
[L_humerus]
19 -13.983130 -135.272980 -120.471481 148.104660 55.418755 -140.918686 181.680161
20 -13.983130 -135.272980 -120.471481 139.784653 65.855370 -145.134064 181.680161
[R_humerus]
19 -13.983309 -135.273102 125.287651 -157.582672 -57.016125 -132.208023 184.909012
20 -13.983309 -135.273102 125.287651 -153.883057 -67.934113 -130.398132 184.909012
[weapon_bone]
19 235.964890 -300.705902 0.000000 0.000000 -89.951546 -128.212341 382.234833
20 235.964890 -300.705902 0.000000 0.000000 -89.951546 -128.212341 382.234833
[Bip01_Head]
19 213.430161 185.753845 11.283234 -1.369125 3.322156 -43.891891 283.168213
20 213.433517 185.744675 11.401764 -0.263690 3.265910 -43.893219 283.169464
[eye_left_bone]
19 -24.626970 125.451866 -64.772606 0.000000 -90.000000 -99.840431 143.318359
20 -24.626970 125.451866 -64.772606 0.000000 -90.000000 -99.840431 143.318359
[eye_right_bone]
19 -24.626970 125.451866 64.327362 0.000000 -89.965736 80.156380 143.117676
20 -24.626970 125.451866 64.327362 0.000000 -89.965736 80.156380 143.117676
[L_forearm]
19 322.776093 0.000000 -0.000119 0.000400 -0.002313 -109.601646 322.776093
20 322.776093 0.000000 -0.000119 0.000398 -0.002313 -109.544136 322.776093
[L_front_hand]
19 241.149185 -0.042021 -3.300071 -178.667953 -1.835447 -27.422350 241.171753
20 241.149185 -0.042021 -3.300071 -178.667953 -1.835447 -27.422350 241.171753
[L_weapon_bone]
19 156.183838 0.000000 0.000000 0.000014 0.000007 0.000001 156.183838
20 156.183838 0.000000 0.000000 0.000014 0.000007 0.000001 156.183838
[L_front_hand01_01]
19 86.095154 20.947098 -0.655860 -0.366594 -0.477154 75.385574 88.609184
20 86.095154 20.947098 -0.655860 -0.366594 -0.477154 75.385574 88.609184
[L_front_hand02_01]
19 86.935165 -11.437475 24.513514 154.399796 -59.883835 -61.369587 91.046425
20 86.935165 -11.437475 24.513514 154.399796 -59.883835 -61.369587 91.046425
[L_front_hand03_01]
19 86.637497 -14.123976 -20.424902 -153.913879 58.118130 -62.702892 90.126129
20 86.637497 -14.123976 -20.424902 -153.913849 58.118122 -62.702866 90.126129
[L_front_hand01_02]
19 71.020905 -0.000179 0.000030 0.000334 -0.002323 -106.374947 71.020905
20 71.020905 -0.000179 0.000030 0.000334 -0.002323 -106.375893 71.020905
[L_front_hand02_02]
19 71.020927 -0.000119 0.000060 0.000334 -0.002323 -106.374947 71.020927
20 71.020927 -0.000119 0.000060 0.000334 -0.002323 -106.375893 71.020927
[L_front_hand03_02]
19 71.020905 -0.000060 0.000060 0.000334 -0.002323 -106.374947 71.020905
20 71.020905 -0.000060 0.000060 0.000334 -0.002323 -106.375893 71.020905
[R_forearm]
19 322.776428 -0.000060 0.000030 0.201998 0.065481 -108.246025 322.776428
20 322.776428 -0.000060 0.000030 0.202027 0.065391 -108.195152 322.776428
[R_front_hand]
19 238.847015 -0.006795 2.210259 -2.635298 -10.645461 -26.312506 238.857239
20 238.847015 -0.006795 2.210259 -2.635298 -10.645461 -26.312506 238.857239
[R_weapon_bone]
19 155.664093 0.002503 -0.000030 0.003487 0.001180 -90.988930 155.664078
20 155.664093 0.002503 -0.000030 0.003487 0.001180 -90.988930 155.664078
[R_front_hand01_01]
19 87.624611 14.231146 22.918642 -154.633499 -59.950619 61.746044 91.683487
20 87.624611 14.231146 22.918642 -154.633484 -59.950619 61.746037 91.683487
[R_front_hand02_01]
19 89.356956 14.367283 -19.491137 154.602661 58.302849 63.744389 92.579636
20 89.356956 14.367283 -19.491137 154.602661 58.302849 63.744389 92.579636
[R_front_hand03_01]
19 87.286232 -22.307278 -0.143439 0.162155 -0.423168 -75.767921 90.091743
20 87.286232 -22.307278 -0.143439 0.162155 -0.423168 -75.767921 90.091743
[R_front_hand01_02]
19 71.020905 0.000060 0.000119 0.002323 -0.000334 106.381714 71.020905
20 71.020905 0.000060 0.000119 0.002323 -0.000334 106.381714 71.020905
[R_front_hand02_02]
19 71.020844 -0.000030 -0.000119 0.002323 -0.000334 106.381714 71.020836
20 71.020844 -0.000030 -0.000119 0.002323 -0.000334 106.381714 71.020836
[R_front_hand03_02]
19 71.020905 0.000000 0.000030 0.002323 -0.000334 106.381714 71.020905
20 71.020905 0.000000 0.000030 0.002323 -0.000334 106.381714 71.020905
[null_rope01_connect]
19 328.732483 0.000000 -0.000238 -136.752686 -54.575371 -157.767685 328.732483
20 328.732483 0.000000 -0.000238 -139.171524 -53.025383 -163.236099 328.732483
[Rope1_Seg01]
19 0.000051 -0.000044 0.000119 6.380362 -7.504702 -137.081985 0.000137
20 0.000056 -0.000043 0.000126 19.194656 -6.458749 -131.018158 0.000145
[Rope1_Seg02]
19 139.999863 -0.000179 0.000000 2.160160 5.553164 -4.227925 139.999863
20 139.999863 -0.000179 0.000000 0.843561 4.019014 -3.804823 139.999863
[Rope1_Seg03]
19 139.999924 0.000060 -0.000060 0.520172 6.187886 -6.000749 139.999924
20 139.999924 0.000060 -0.000060 0.278770 5.359612 -5.512877 139.999924
[Rope1_Seg04]
19 139.999924 -0.000060 -0.000119 -1.434853 8.053296 -10.336989 139.999924
20 139.999924 -0.000060 -0.000119 -1.251008 10.143896 -11.878226 139.999924
[Rope1_Seg05]
19 139.999832 0.000119 -0.000060 4.618837 0.173445 7.537636 139.999832
20 139.999832 0.000119 -0.000060 1.988097 -4.715974 8.522146 139.999832
[Rope1_Seg06]
19 139.999954 0.000119 -0.000060 6.960166 -2.081362 11.132565 139.999954
20 139.999954 0.000119 -0.000060 2.776998 -5.826163 9.506342 139.999954
[Rope1_Seg07]
19 139.999985 0.000060 0.000000 3.835291 0.236293 3.785936 139.999985
20 139.999985 0.000060 0.000000 1.756770 -1.413693 2.918614 139.999985
[Rope1_Seg09]
19 121.602913 0.000119 -0.000089 -89.793175 -1.359789 0.847147 121.602913
20 121.602913 0.000119 -0.000089 -89.793175 -1.359789 0.847147 121.602913
[L_mid_hand01]
19 103.859421 1.038730 8.195221 130.544373 -67.584534 -38.866943 104.187431
20 103.859421 1.038730 8.195221 130.544373 -67.584534 -38.866943 104.187431
[L_mid_hand02]
19 105.572853 -4.139662 -10.864139 -168.923172 43.409309 -73.498886 106.211075
20 105.572853 -4.139662 -10.864139 -168.923172 43.409309 -73.498886 106.211075
[L_mid_hand03]
19 104.641464 17.579376 -3.913581 -6.012627 17.808178 74.893677 106.179977
20 104.641464 17.579376 -3.913581 -6.012627 17.808174 74.893669 106.179977
[null_rope02_connect]
19 328.732849 0.000179 -0.000119 -68.950912 67.638535 34.152252 328.732849
20 328.732849 0.000179 -0.000119 -85.467094 65.374298 26.543478 328.732849
[Rope2_Seg01]
19 0.000012 0.000272 0.000000 -56.156315 -18.653444 -97.228767 0.000272
20 0.000010 0.000279 0.000000 -62.294449 -24.811655 -93.895447 0.000279
[Rope2_Seg02]
19 139.999741 -0.000060 -0.000119 0.015975 5.227365 -2.181062 139.999756
20 139.999741 -0.000060 -0.000119 5.215288 6.648769 3.796588 139.999756
[Rope2_Seg03]
19 140.000107 0.000030 0.000000 -5.647487 -10.358497 -3.757911 140.000107
20 140.000107 0.000030 0.000000 -1.347310 -6.426029 1.350458 140.000107
[Rope2_Seg04]
19 139.999802 0.000000 -0.000060 8.625490 21.495205 5.468829 139.999802
20 139.999802 0.000000 -0.000060 6.895310 15.537029 3.178784 139.999802
[Rope2_Seg05]
19 139.999985 -0.000060 0.000119 3.548148 28.075329 4.245536 139.999985
20 139.999985 -0.000060 0.000119 3.710297 28.078260 0.577858 139.999985
[Rope2_Seg06]
19 139.999893 -0.000030 -0.000119 -0.471174 8.658354 0.764543 139.999893
20 139.999893 -0.000030 -0.000119 -0.079299 9.746311 -0.367443 139.999893
[Rope2_Seg07]
19 139.999893 0.000060 -0.000060 -0.469807 4.123904 0.375711 139.999893
20 139.999893 0.000060 -0.000060 -0.255955 4.498164 -0.132127 139.999893
[Rope2_Seg09]
19 121.338966 0.000089 -0.000060 33.793236 -1.359788 -0.847141 121.338966
20 121.338966 0.000089 -0.000060 33.793236 -1.359788 -0.847141 121.338966
[R_mid_hand01]
19 104.680779 11.144459 -10.335981 -16.212063 45.237247 70.462852 105.778534
20 104.680779 11.144459 -10.335981 -16.212063 45.237247 70.462852 105.778534
[R_mid_hand02]
19 104.070427 2.443552 8.231699 49.067368 -67.749771 39.286453 104.424065
20 104.070427 2.443552 8.231699 49.067368 -67.749771 39.286453 104.424065
[R_mid_hand03]
19 106.028137 -11.221827 -5.996406 -177.101105 15.551026 -76.585571 106.788818
20 106.028137 -11.221827 -5.996406 -177.101105 15.551026 -76.585571 106.788818
[spine02]
19 129.756927 0.001550 0.000119 0.376864 -4.043099 -13.182136 129.756927
20 129.756927 0.001550 0.000119 0.370970 -4.043698 -13.084785 129.756927
[spine03]
19 78.613693 0.081472 -4.898876 1.920173 3.819105 16.834251 78.766220
20 78.613670 0.081504 -4.898867 1.915443 3.821554 16.762012 78.766197
[pelvis]
19 169.435242 0.051022 0.000000 0.019518 -0.190233 -10.721436 169.435257
20 169.435242 0.051022 0.000000 0.009413 -0.191021 -7.610425 169.435257
[null_rope03_connect]
19 -1.257226 -2.466202 137.391083 -172.126480 -86.281960 -73.552528 137.418976
20 -1.257226 -2.466202 137.391083 -175.402557 -86.547813 -79.080208 137.418976
[null_rope04_connect]
19 -1.259640 -2.480268 -137.844437 -172.126480 -86.281960 -73.552528 137.872513
20 -1.259640 -2.480268 -137.844437 -175.402557 -86.547813 -79.080208 137.872513
[Rope3_Seg01]
19 0.000000 0.000000 0.000000 11.445230 12.146824 -100.902954 0.000000
20 0.000000 0.000000 0.000000 10.388862 17.250912 -99.914436 0.000000
[Rope3_Seg02]
19 139.999924 -0.000119 0.000060 2.185526 -5.390751 6.488639 139.999924
20 139.999924 -0.000119 0.000060 1.565732 -4.490386 5.734180 139.999924
[Rope3_Seg03]
19 139.999924 -0.000119 0.000119 2.019201 -6.527590 8.599939 139.999924
20 139.999924 -0.000119 0.000119 1.422747 -5.562663 7.613739 139.999924
[Rope3_Seg04]
19 139.999924 0.000119 0.000000 1.131728 -9.548472 13.878256 139.999924
20 139.999924 0.000119 0.000000 0.522894 -9.253117 13.811985 139.999924
[Rope3_Seg05]
19 139.999924 -0.000238 0.000060 -0.082640 1.276537 -1.794727 139.999924
20 139.999924 -0.000238 0.000060 0.021726 0.956631 -1.744117 139.999924
[Rope3_Seg06]
19 139.999893 -0.000119 -0.000060 -1.974543 6.975698 -10.674164 139.999893
20 139.999893 -0.000119 -0.000060 -1.495089 6.601515 -10.736830 139.999893
[Rope3_Seg07]
19 139.999771 0.000060 -0.000119 -0.596270 2.939673 -4.200054 139.999771
20 139.999771 0.000060 -0.000119 -0.339361 2.533652 -4.003760 139.999771
[Rope3_Seg08]
19 139.999985 -0.000060 0.000000 -0.219984 1.886427 -2.643552 139.999985
20 139.999985 -0.000060 0.000000 -0.041885 1.568952 -2.457340 139.999985
[Rope3_Seg09]
19 90.185997 -0.000179 -0.000060 89.793228 -1.359877 -0.847183 90.185997
20 90.185997 -0.000179 -0.000060 89.793228 -1.359877 -0.847183 90.185997
[R_rear_hand01]
19 103.366196 -6.073594 -10.757982 -177.714203 24.565960 -73.910950 104.101845
20 103.366196 -6.073594 -10.757982 -177.714203 24.565960 -73.910950 104.101845
[R_rear_hand02]
19 100.509819 12.039542 -7.992327 -12.874829 36.868488 72.167213 101.543350
20 100.509819 12.039542 -7.992327 -12.874829 36.868488 72.167213 101.543350
[R_rear_hand03]
19 101.539970 5.215704 5.435467 71.484581 -71.816628 21.513813 101.819031
20 101.539970 5.215704 5.435467 71.484581 -71.816628 21.513813 101.819031
[Rope4_Seg01]
19 -0.000034 -0.000247 0.000000 -98.692101 1.742853 -112.641388 0.000249
20 -0.000035 -0.000259 0.000000 -99.351578 5.098969 -113.836266 0.000261
[Rope4_Seg02]
19 139.999985 0.000060 0.000119 -0.126786 8.971571 6.906427 139.999985
20 139.999985 0.000060 0.000119 -0.437249 7.064358 6.389969 139.999985
[Rope4_Seg03]
19 139.999924 0.000000 -0.000238 -0.650941 9.762826 7.257706 139.999924
20 139.999924 0.000000 -0.000238 -1.030768 7.529673 6.787916 139.999924
[Rope4_Seg04]
19 139.999985 0.000000 0.000119 -0.584467 11.357224 6.915990 139.999985
20 139.999985 0.000000 0.000119 -1.361853 8.761313 6.776758 139.999985
[Rope4_Seg05]
19 139.999802 -0.000060 -0.000119 -5.940360 3.715531 7.196784 139.999802
20 139.999802 -0.000060 -0.000119 -4.701216 4.212993 7.119717 139.999802
[Rope4_Seg06]
19 139.999924 0.000000 0.000060 -5.441088 -1.844040 3.798921 139.999924
20 139.999924 0.000000 0.000060 -3.978041 -0.486285 3.626756 139.999924
[Rope4_Seg07]
19 139.999802 0.000000 0.000000 -2.721112 -0.351312 2.221496 139.999802
20 139.999802 0.000000 0.000000 -2.147568 0.141022 2.155843 139.999802
[Rope4_Seg08]
19 139.999924 0.000000 0.000119 -3.165443 -0.104246 1.360206 139.999924
20 139.999924 0.000000 0.000119 -2.865370 0.168587 1.333229 139.999924
[Rope4_Seg09]
19 90.185791 0.000060 0.000060 -135.617828 2.228885 0.850567 90.185791
20 90.185791 0.000060 0.000060 -135.617828 2.228885 0.850567 90.185791
[L_rear_hand01]
19 101.696655 -8.392275 -7.654577 -12.874829 -36.868488 107.832764 102.329041
20 101.696655 -8.392275 -7.654577 -12.874829 -36.868488 107.832764 102.329041
[L_rear_hand02]
19 102.726799 -1.568258 5.773216 71.484581 71.816628 158.486160 102.900848
20 102.726799 -1.568258 5.773216 71.484581 71.816628 158.486160 102.900848
[L_rear_hand03]
19 104.552910 9.721220 -10.420293 -177.714203 -24.565960 -106.089035 105.519653
20 104.552910 9.721220 -10.420293 -177.714203 -24.565960 -106.089035 105.519653
